<?xml version="1.0" encoding="UTF-8"?>
<svg width="22px" height="44px" viewBox="0 0 22 44" version="1.1" xmlns="http://www.w3.org/2000/svg" xmlns:xlink="http://www.w3.org/1999/xlink">
    <!-- Generator: Sketch 50.2 (55047) - http://www.bohemiancoding.com/sketch -->
    <title>Artboard</title>
    <desc>Created with Sketch.</desc>
    <defs></defs>
    <g id="Artboard" stroke="none" stroke-width="1" fill="none" fill-rule="evenodd">
        <g id="Group" transform="translate(1.000000, 0.000000)" stroke="#005073" stroke-linecap="round" stroke-width="3">
            <polyline id="chevron" transform="translate(7.000000, 5.500000) scale(1, -1) translate(-7.000000, -5.500000) " points="2 3 7 8 12 3"></polyline>
        </g>
        <g id="Group-Copy" transform="translate(8.000000, 17.000000) scale(1, -1) translate(-8.000000, -17.000000) translate(1.000000, 12.000000)" stroke="#005073" stroke-linecap="round" stroke-width="3">
            <polyline id="chevron" transform="translate(7.000000, 5.500000) scale(1, -1) translate(-7.000000, -5.500000) " points="2 3 7 8 12 3"></polyline>
        </g>
        <g id="Group-4" transform="translate(1.000000, 23.000000)" fill="#005073" fill-rule="nonzero">
            <g id="Group">
                <path d="M14.0909091,10 C14.5909091,10 15,9.59090909 15,9.09090909 L15,8.63636364 L15,0.909090909 C15,0.409090909 14.5909091,0 14.0909091,0 L0.909090909,0 C0.409090909,0 0,0.409090909 0,0.909090909 L0,9.09090909 C0,9.59090909 0.409090909,10 0.909090909,10 L2.72727273,10 L2.72727273,11.8181818 L2.72727273,13.6363636 L4.54545455,11.8181818 L6.36363636,10 L7.27272727,10 L14.0909091,10 Z" id="Shape"></path>
                <path d="M19.0909091,8.63636364 L16.8181818,8.63636364 L16.8181818,9.09090909 C16.8181818,10.5909091 15.5909091,11.8181818 14.0909091,11.8181818 L7.27272727,11.8181818 L7.27272727,16.3636364 C7.27272727,16.8636364 7.68181818,17.2727273 8.18181818,17.2727273 L15.4545455,17.2727273 L18.1818182,20 L18.1818182,17.2727273 L19.0909091,17.2727273 C19.5909091,17.2727273 20,16.8636364 20,16.3636364 L20,9.54545455 C20,9.04545455 19.5909091,8.63636364 19.0909091,8.63636364 Z" id="Shape"></path>
            </g>
        </g>
    </g>
</svg>